<?xml version="1.0" standalone="no"?>
<!DOCTYPE svg PUBLIC "-//W3C//DTD SVG 20010904//EN"
 "http://www.w3.org/TR/2001/REC-SVG-20010904/DTD/svg10.dtd">
<svg version="1.0" xmlns="http://www.w3.org/2000/svg"
 width="150.000000pt" height="150.000000pt" viewBox="0 0 150.000000 150.000000"
 preserveAspectRatio="xMidYMid meet">

<g transform="translate(0.000000,150.000000) scale(0.100000,-0.100000)"
fill="#000000" stroke="none">
<path d="M418 1247 l-328 -211 1 -291 0 -290 101 -65 c56 -36 105 -66 110 -68
4 -2 8 48 8 112 l0 116 105 0 105 0 0 115 0 115 -110 0 -110 0 0 53 0 54 123
75 c67 41 128 73 135 70 8 -2 12 -25 12 -63 l0 -59 95 0 95 0 0 275 c0 151 -3
275 -7 274 -5 0 -155 -95 -335 -212z"/>
<path d="M840 750 l0 -710 63 39 c34 22 169 107 299 188 l238 148 0 138 0 137
-80 0 -79 0 -3 -67 -3 -67 -118 -68 c-66 -37 -121 -68 -123 -68 -2 0 -4 47 -4
105 l0 105 105 0 105 0 0 105 0 105 -100 0 -100 0 0 110 c0 61 2 110 4 110 2
0 56 -25 120 -55 l116 -54 0 -61 0 -60 80 0 81 0 -3 127 -3 126 -290 189
c-159 103 -293 188 -297 188 -4 0 -8 -320 -8 -710z"/>
</g>
</svg>
